<svg id="logo-stoneco" xmlns="http://www.w3.org/2000/svg" width="105.716" height="27.973" viewBox="0 0 105.716 27.973">
  <g id="Grupo_1" data-name="Grupo 1" transform="translate(0 7.33)">
    <path id="Caminho_2" data-name="Caminho 2" d="M1.6,18.213A1.736,1.736,0,0,1,.7,16.634a1.849,1.849,0,0,1,1.9-1.842,2.085,2.085,0,0,1,1.007.264,11.01,11.01,0,0,0,5.884,1.917c2.012,0,3.173-.827,3.173-2.144v-.075c0-1.541-2.167-2.068-4.567-2.782-3.019-.827-6.385-2.03-6.385-5.828V6.069c0-3.76,3.21-6.054,7.276-6.054a14.367,14.367,0,0,1,6.426,1.617,1.925,1.925,0,0,1,1.123,1.729,1.955,1.955,0,0,1-2.865,1.616,11.4,11.4,0,0,0-4.8-1.352c-1.819,0-2.865.826-2.865,1.954v.076c0,1.467,2.207,2.068,4.606,2.82,2.981.9,6.348,2.218,6.348,5.79v.076c0,4.173-3.329,6.242-7.586,6.242a14.258,14.258,0,0,1-7.78-2.37" transform="translate(-0.705 -0.015)" fill="#FFFFFF"/>
  </g>
  <path id="Caminho_3" data-name="Caminho 3" d="M39.575,16.366V16.29A6.219,6.219,0,0,0,33.305,9.9a6.038,6.038,0,0,0-6.155,6.318v.075a6.2,6.2,0,0,0,6.231,6.355,6.037,6.037,0,0,0,6.193-6.28m-17.109,0V16.29c0-5.676,4.646-10.377,10.915-10.377s10.877,4.625,10.877,10.3v.075c0,5.64-4.644,10.339-10.953,10.339-6.233,0-10.839-4.624-10.839-10.263m27.326,7.726V14.526a4.491,4.491,0,0,1,8.981-.114v9.682a2.343,2.343,0,0,0,4.684,0V14.864a9.178,9.178,0,0,0-18.348,0v9.229a2.343,2.343,0,0,0,4.684,0" transform="translate(5.141 1.341)" fill="#FFFFFF"/>
  <path id="Caminho_4" data-name="Caminho 4" d="M23.184,12a2.069,2.069,0,1,0,0-4.136h-3.6V4.5a2.343,2.343,0,0,0-4.684,0v16.75h.013a7.222,7.222,0,0,0,6.99,6.895,2.2,2.2,0,0,0,.32.025h.913a2.115,2.115,0,1,0,0-4.228H22.5a2.9,2.9,0,0,1-2.917-2.872V12Zm51.025,5.459a1.985,1.985,0,0,0,2.013,1.956h7.646a1.985,1.985,0,0,0,2.013-1.956c0-5.677-3.9-10.009-9.324-10.009A10.154,10.154,0,0,0,66.165,17.826V17.9A10.334,10.334,0,0,0,76.824,28.167a11.012,11.012,0,0,0,6.8-2.258,2.027,2.027,0,0,0,.1-3.165,2.174,2.174,0,0,0-2.829.022A5.971,5.971,0,0,1,76.9,24.182a6.154,6.154,0,0,1-6.129-6.356v-.074c0-3.46,2.017-6.318,5.709-6.318,2.44,0,4.153,1.7,4.823,4.068H76.223a1.984,1.984,0,0,0-2.013,1.955M98.921,4.621v-.03a2.634,2.634,0,0,0-2.656-2.707A2.557,2.557,0,0,0,93.657,4.56v.03A2.627,2.627,0,0,0,96.3,7.283a2.557,2.557,0,0,0,2.624-2.66m-7.245,0V4.591a4.62,4.62,0,0,1,9.228-.03v.03A4.464,4.464,0,0,1,96.264,8.97a4.417,4.417,0,0,1-4.59-4.348m-7.914-.016V4.582A4.372,4.372,0,0,1,88.305.195a4.7,4.7,0,0,1,2.913.86A.913.913,0,0,1,90.644,2.7a1.025,1.025,0,0,1-.571-.181,2.919,2.919,0,0,0-1.781-.606,2.543,2.543,0,0,0-2.527,2.643v.025a2.547,2.547,0,0,0,2.527,2.664,2.834,2.834,0,0,0,1.892-.666.91.91,0,0,1,.573-.206.885.885,0,0,1,.9.86.865.865,0,0,1-.323.666,4.445,4.445,0,0,1-3.1,1.067,4.341,4.341,0,0,1-4.469-4.363m18.847,3.227a1.006,1.006,0,1,1-1.006-.979.993.993,0,0,1,1.006.979" transform="translate(3.108 -0.195)" fill="#FFFFFF"/>
</svg>
