<svg xmlns="http://www.w3.org/2000/svg" viewBox="0 0 397.03 168.05"><defs><style>.cls-1{fill:#FFFFFF;}</style></defs><title>Ativo 1</title><g id="Camada_2" data-name="Camada 2"><g id="Camada_1-2" data-name="Camada 1"><path class="cls-1" d="M36,133.29c8.67-4.76,26.88-5.52,46.44-.78,21.88,5.29,169.13.6,190.48,1.21a6.71,6.71,0,0,1,6.57,6.05c0,.2,0,.4,0,.61,0,5-10.42,12.47-16.86,12.47,0,0,8.09-8.48,4.79-13.34,0,0-220.6.37-257,20.16,0,0-8,3.14-10.36-9.74-.31-2.2,6.59-6.91,18.21-11.3C42.09,42.39,104.1,0,108.34,0c8.48,0,10,4.71,10,4.71s10.2-1.26,10.2,7.54c0,12.71-16,16.64-16,16.64,5-9.27,5-15.07,5-15.07C63.59,50.55,42.87,107.07,36,133.29Z"/><path class="cls-1" d="M147.56,80.76c-10.36,19.16-25.12,41.14-49,41.14-19.31,0-30.3-8.64-30.3-22.3,0-26.06,30.46-41.92,41.45-41.92,9.89,0,13.5,7.07,13.5,7.07s6.43,1.1,6.43,9.26c0,10-12.71,24.34-28.88,24.34-10.21,0-13.19-6.44-14.13-11.47-3.14,2.83-4.09,7.38-4.09,10.05,0,6.75,4.24,11.62,16.18,11.62,24,0,43-30.77,43-30.77ZM91,81.55c2,7.53,13,4.24,18.53,1.41,9.42-5,7.22-14,7.22-14C106.27,69,97.32,74.8,91,81.55Z"/><path class="cls-1" d="M232.5,80.6c-3.77,6.6-22.3,41.3-41.61,41.3-4.24,0-14.76-4.71-14.76-16.8,0-11.15,19.79-35.17,19.79-35.17-43.18,28.1-43,52-48.52,52-6.59,0-9.42-5.5-10.36-8-1.25-.32-5.81-2.36-5.81-12.72,0-22.14,26.07-45.06,30.62-45.06,12.87,0,10.52,10.52,10.52,10.52-9.74,5.65-18.22,19.16-21.67,29.2,15.54-21.51,40.19-38.62,49.93-38.62,3,0,4.08,1.1,5.65,3.14,3.92,0,6.75,5,6.75,8,0,8.63-25,36.58-12.87,36.58,8.79,0,26.53-27.32,26.53-27.32Z"/><path class="cls-1" d="M272.53,105.57a2.67,2.67,0,0,0,1.57.47c14.45,0,35-28.58,35-28.58l5.81,3c-6.12,12.56-25,41.29-41.6,41.29-11,0-17.43-5.65-17.27-16.33-9.11,8.79-18.84,16.49-25.12,16.49-10.36,0-12.25-8-12.25-8-2.82,0-6.12-6.44-6.12-12.25,0-19.15,28.57-44.43,42.23-44.43,9,0,15.23,4.24,19.47,8.64,1.73-2.67,3.61-5.66,5.81-8.64C303.62,23.3,319.16,12,331.25,12c6.59,0,8.79,4.08,8.79,4.08s6.12.63,6.12,8.79c0,13.19-31.71,27-52.28,41.6,0,.16-.15.32-.31.48C283.52,81.55,269.71,102.27,272.53,105.57Zm-5.81-27.48c.94-1.72,1.89-3.29,3-5a12.59,12.59,0,0,0-8.95-3.46c-22.3,0-39.72,39.73-30.77,39.73C240.19,109.34,259.34,87,266.72,78.09Zm41.61-30.61C331.41,33.66,334.7,23.93,333.6,23,332.35,22,322.14,30.52,308.33,47.48Z"/><path class="cls-1" d="M339.41,131.31c-13.81,29.05-29.51,36.74-35.48,36.74-6.12,0-17.27-2.67-16.95-17.42-4.87-11.78,14.75-21.67,38.15-28.58,1.25-2.2,2.35-4.39,3.61-6.75-5,3.93-10.05,6.6-14.76,6.6-8.48,0-10.68-6.91-10.68-6.91s-6.12-1.1-6.12-12.72c0-22.14,26.06-45.06,30.46-45.06,13,0,10.67,10.52,10.67,10.52-16.32,9.42-26.37,33.76-19.46,39.41,6.28,0,14.91-8.48,22.6-18.06.48-1.1,17.12-33.44,26.85-33.44,7.38,0,17,10.36,13.82,10.52-9.58.47-23.08,20.1-36.43,50.55,26.22-9.1,45.38-41.29,45.38-41.29l6,3C381.49,110.43,361.86,123.31,339.41,131.31Zm-24.49,8.17c-19.62,8.16-22.76,17.74-11.15,11.77C307.07,149.53,311,145.13,314.92,139.48Z"/></g></g></svg>