<svg xmlns="http://www.w3.org/2000/svg" viewBox="0 0 183.34 78.67"><defs>
<style>*{fill:#ffffff}.cls-1{fill:none;stroke:#FFFFFF;stroke-miterlimit:10;stroke-width:0.75px;}</style>
</defs><title>Ativo 4</title><g id="Camada_2" data-name="Camada 2"><g id="Camada_1-2" data-name="Camada 1"><path d="M0,37.5,16.53.38h7.7L10.83,30.46H21.62l-3.14,7Z"/><path d="M38.32.38H56.16L53,7.44H42.8L39.61,14.6h9.71l-3.08,6.93H36.63l-4,8.93H43l-3.13,7H21.79Z"/><path d="M50.44,37.5H42.71L59.24.38h22L64.71,37.5H57l5.43-12.2H55.87ZM65.57,18.24l4.82-10.8H63.83L59,18.24Z"/><path d="M85.61,30.46l2.55-5.72H85L88,18.14H98.72L90.1,37.5h-22L84.67.38h20.69l-3.14,7.06h-13L79,30.46Z"/><path d="M115.38,37.5H93.64L110.17.38h7.7l-13.4,30.08h6.31L124.17.38h7.73Z"/><path class="cls-1" d="M135.34.38h17.84L150,7.44H139.82l-3.19,7.16h9.71l-3.08,6.93h-9.61l-4,8.93H140l-3.13,7h-18.1Z"/><path d="M92.33,41.48h15.81l3.31,5.88L99.82,73.47l-7.45,5.14H75.8Zm.61,30.09,10.25-23H96.88l-10.25,23Z"/><path class="cls-1" d="M117.15,41.79H134.7l-3.09,7H121.56l-3.14,7H128l-3,6.82h-9.45l-3.91,8.78h10.2L118.7,78.3H100.9Z"/><path d="M152.4,41.48h7.91L138.9,78.61H126.7l11.54-37.13h8L136.63,70Z"/><path d="M167,78.61H146.83L152,67.05h7.7l-2,4.52h4.78l2.63-5.9L157,56.35l6.61-14.87h19.73l-4.91,11h-7l1.76-4h-5L166,53.42l8.12,9.3Z"/><path d="M70.13,52.88a11.84,11.84,0,0,0,1.11-4.35,7.07,7.07,0,0,0-.86-3.66,6,6,0,0,0-2.52-2.52,8.41,8.41,0,0,0-3.93-.83,13.73,13.73,0,0,0-4.67.83,20,20,0,0,0-4.74,2.5,21.55,21.55,0,0,0-4.11,3.69,17.43,17.43,0,0,0-2.75,4.34,11.4,11.4,0,0,0-1.11,4.33,6.73,6.73,0,0,0,.83,3.68,5.77,5.77,0,0,0,2.52,2.49,8.73,8.73,0,0,0,3.94.82,14.4,14.4,0,0,0,4.66-.82,20.68,20.68,0,0,0,4.75-2.49,21.89,21.89,0,0,0,4.11-3.66A17.61,17.61,0,0,0,70.13,52.88Zm-19.46,0a13.32,13.32,0,0,1,2-3.18,16.1,16.1,0,0,1,3-2.69,15.17,15.17,0,0,1,3.46-1.83,10.41,10.41,0,0,1,3.44-.61,6.47,6.47,0,0,1,2.37.4L50.74,59.16c-.09-.15-.19-.29-.27-.45A4.94,4.94,0,0,1,49.85,56,8.7,8.7,0,0,1,50.67,52.85ZM65.09,56a15.75,15.75,0,0,1-3,2.68,14.67,14.67,0,0,1-3.47,1.82,10.2,10.2,0,0,1-3.41.61,6.32,6.32,0,0,1-2.89-.61l-.2-.13L66.55,46a5.25,5.25,0,0,1,.77,1,5.62,5.62,0,0,1,.6,2.69,8.53,8.53,0,0,1-.79,3.18A13,13,0,0,1,65.09,56Z"/><polygon points="78.42 45.56 78.84 44.63 79.76 44.63 88.45 44.63 89.78 41.66 77.2 41.66 73.3 50.43 71.14 55.27 67.23 64.06 70.18 64.06 71.93 60.13 74.1 55.27 74.51 54.35 75.43 54.35 81.72 54.35 83.04 51.38 76.75 51.38 75.83 51.38 76.25 50.43 78.42 45.56"/></g></g></svg>